<mxfile host="app.diagrams.net" agent="Mozilla/5.0 (X11; Linux x86_64) AppleWebKit/537.36 (KHTML, like Gecko) Chrome/131.0.0.0 Safari/537.36" version="26.0.6">
  <diagram name="Page-1" id="eMnLgTHBbeflOONuQ0s7">
    <mxGraphModel dx="1733" dy="729" grid="1" gridSize="10" guides="1" tooltips="1" connect="1" arrows="1" fold="1" page="1" pageScale="1" pageWidth="827" pageHeight="1169" math="0" shadow="0">
      <root>
        <mxCell id="0" />
        <mxCell id="1" parent="0" />
        <mxCell id="-bDl3V9sjxUpRApwp8d1-5" value="" style="rounded=1;whiteSpace=wrap;html=1;" parent="1" vertex="1">
          <mxGeometry x="100" y="30" width="270" height="80" as="geometry" />
        </mxCell>
        <mxCell id="-bDl3V9sjxUpRApwp8d1-6" value="Proxy" style="ellipse;whiteSpace=wrap;html=1;" parent="1" vertex="1">
          <mxGeometry x="190" y="575" width="160" height="80" as="geometry" />
        </mxCell>
        <mxCell id="-bDl3V9sjxUpRApwp8d1-7" value="client" style="rounded=0;whiteSpace=wrap;html=1;" parent="1" vertex="1">
          <mxGeometry x="500" y="685" width="120" height="60" as="geometry" />
        </mxCell>
        <mxCell id="-bDl3V9sjxUpRApwp8d1-10" value="" style="shape=flexArrow;endArrow=classic;startArrow=classic;html=1;rounded=0;exitX=0.5;exitY=0;exitDx=0;exitDy=0;entryX=0.37;entryY=1.043;entryDx=0;entryDy=0;entryPerimeter=0;" parent="1" source="-bDl3V9sjxUpRApwp8d1-6" edge="1" target="gMse6Fu8QTCak0NaZkUb-14">
          <mxGeometry width="100" height="100" relative="1" as="geometry">
            <mxPoint x="360" y="500" as="sourcePoint" />
            <mxPoint x="300" y="410" as="targetPoint" />
            <Array as="points">
              <mxPoint x="270" y="490" />
              <mxPoint x="300" y="490" />
            </Array>
          </mxGeometry>
        </mxCell>
        <mxCell id="-bDl3V9sjxUpRApwp8d1-12" value="172.0.0.1&lt;div&gt;&lt;br&gt;&lt;/div&gt;" style="text;html=1;align=center;verticalAlign=middle;whiteSpace=wrap;rounded=0;" parent="1" vertex="1">
          <mxGeometry x="320" y="565" width="60" height="30" as="geometry" />
        </mxCell>
        <mxCell id="-bDl3V9sjxUpRApwp8d1-14" value="80" style="rounded=1;whiteSpace=wrap;html=1;" parent="1" vertex="1">
          <mxGeometry x="280" y="460" width="80" height="20" as="geometry" />
        </mxCell>
        <mxCell id="-bDl3V9sjxUpRApwp8d1-16" value="" style="shape=flexArrow;endArrow=classic;startArrow=classic;html=1;rounded=0;entryX=0;entryY=0.5;entryDx=0;entryDy=0;" parent="1" source="-bDl3V9sjxUpRApwp8d1-6" target="-bDl3V9sjxUpRApwp8d1-7" edge="1">
          <mxGeometry width="100" height="100" relative="1" as="geometry">
            <mxPoint x="330" y="641" as="sourcePoint" />
            <mxPoint x="320" y="745" as="targetPoint" />
            <Array as="points">
              <mxPoint x="270" y="715" />
            </Array>
          </mxGeometry>
        </mxCell>
        <mxCell id="-bDl3V9sjxUpRApwp8d1-17" value="172.0.0.1 mais peut être autre chose dans un cas réel" style="text;html=1;align=center;verticalAlign=middle;whiteSpace=wrap;rounded=0;" parent="1" vertex="1">
          <mxGeometry x="510" y="645" width="110" height="30" as="geometry" />
        </mxCell>
        <mxCell id="-bDl3V9sjxUpRApwp8d1-18" value="port 8001" style="rounded=1;whiteSpace=wrap;html=1;" parent="1" vertex="1">
          <mxGeometry x="260" y="685" width="80" height="20" as="geometry" />
        </mxCell>
        <mxCell id="-bDl3V9sjxUpRApwp8d1-19" value="" style="rounded=1;whiteSpace=wrap;html=1;" parent="1" vertex="1">
          <mxGeometry x="540" y="100" width="250" height="80" as="geometry" />
        </mxCell>
        <mxCell id="gMse6Fu8QTCak0NaZkUb-1" value="" style="rounded=1;whiteSpace=wrap;html=1;fillColor=none;" vertex="1" parent="1">
          <mxGeometry x="-56" width="940" height="450" as="geometry" />
        </mxCell>
        <mxCell id="-bDl3V9sjxUpRApwp8d1-24" value="mongodb" style="text;html=1;align=center;verticalAlign=middle;whiteSpace=wrap;rounded=0;" parent="1" vertex="1">
          <mxGeometry x="540" y="190" width="60" height="30" as="geometry" />
        </mxCell>
        <mxCell id="-bDl3V9sjxUpRApwp8d1-28" value="webapp" style="text;html=1;align=center;verticalAlign=middle;whiteSpace=wrap;rounded=0;" parent="1" vertex="1">
          <mxGeometry x="370" y="30" width="60" height="30" as="geometry" />
        </mxCell>
        <mxCell id="-bDl3V9sjxUpRApwp8d1-30" value="webappnodb" style="text;html=1;align=center;verticalAlign=middle;whiteSpace=wrap;rounded=0;" parent="1" vertex="1">
          <mxGeometry x="250" y="170" width="60" height="30" as="geometry" />
        </mxCell>
        <mxCell id="-bDl3V9sjxUpRApwp8d1-31" value="" style="shape=flexArrow;endArrow=classic;startArrow=classic;html=1;rounded=0;exitX=0.5;exitY=0;exitDx=0;exitDy=0;entryX=1;entryY=0.25;entryDx=0;entryDy=0;" parent="1" edge="1">
          <mxGeometry width="100" height="100" relative="1" as="geometry">
            <mxPoint x="290" y="330" as="sourcePoint" />
            <mxPoint x="240" y="210" as="targetPoint" />
            <Array as="points">
              <mxPoint x="290" y="210" />
            </Array>
          </mxGeometry>
        </mxCell>
        <mxCell id="-bDl3V9sjxUpRApwp8d1-32" value="port 5000" style="rounded=1;whiteSpace=wrap;html=1;" parent="1" vertex="1">
          <mxGeometry x="260" y="260" width="80" height="20" as="geometry" />
        </mxCell>
        <mxCell id="-bDl3V9sjxUpRApwp8d1-33" value="" style="shape=flexArrow;endArrow=classic;startArrow=classic;html=1;rounded=0;exitX=0.5;exitY=0;exitDx=0;exitDy=0;entryX=0.5;entryY=1;entryDx=0;entryDy=0;" parent="1" target="-bDl3V9sjxUpRApwp8d1-5" edge="1">
          <mxGeometry width="100" height="100" relative="1" as="geometry">
            <mxPoint x="360" y="330" as="sourcePoint" />
            <mxPoint x="310" y="210" as="targetPoint" />
            <Array as="points">
              <mxPoint x="360" y="160" />
              <mxPoint x="235" y="160" />
            </Array>
          </mxGeometry>
        </mxCell>
        <mxCell id="-bDl3V9sjxUpRApwp8d1-34" value="webappnodb" style="text;html=1;align=center;verticalAlign=middle;whiteSpace=wrap;rounded=0;" parent="1" vertex="1">
          <mxGeometry x="100" y="110" width="60" height="30" as="geometry" />
        </mxCell>
        <mxCell id="-bDl3V9sjxUpRApwp8d1-35" value="port 5000" style="rounded=1;whiteSpace=wrap;html=1;" parent="1" vertex="1">
          <mxGeometry x="330" y="220" width="80" height="20" as="geometry" />
        </mxCell>
        <mxCell id="gMse6Fu8QTCak0NaZkUb-2" value="Kube" style="text;html=1;align=center;verticalAlign=middle;whiteSpace=wrap;rounded=0;" vertex="1" parent="1">
          <mxGeometry x="-10" y="30" width="60" height="30" as="geometry" />
        </mxCell>
        <mxCell id="gMse6Fu8QTCak0NaZkUb-5" value="Deployment webapp" style="rounded=0;whiteSpace=wrap;html=1;" vertex="1" parent="1">
          <mxGeometry x="200" y="40" width="160" height="60" as="geometry" />
        </mxCell>
        <mxCell id="gMse6Fu8QTCak0NaZkUb-6" value="pod&lt;div&gt;webappno&lt;/div&gt;" style="text;html=1;align=center;verticalAlign=middle;whiteSpace=wrap;rounded=0;" vertex="1" parent="1">
          <mxGeometry x="110" y="55" width="60" height="30" as="geometry" />
        </mxCell>
        <mxCell id="gMse6Fu8QTCak0NaZkUb-8" value="Deployment mongodb" style="rounded=0;whiteSpace=wrap;html=1;" vertex="1" parent="1">
          <mxGeometry x="650" y="120" width="120" height="40" as="geometry" />
        </mxCell>
        <mxCell id="gMse6Fu8QTCak0NaZkUb-9" value="pod&lt;div&gt;mongodb&lt;/div&gt;" style="text;html=1;align=center;verticalAlign=middle;whiteSpace=wrap;rounded=0;" vertex="1" parent="1">
          <mxGeometry x="570" y="125" width="60" height="30" as="geometry" />
        </mxCell>
        <mxCell id="gMse6Fu8QTCak0NaZkUb-10" value="" style="rounded=1;whiteSpace=wrap;html=1;" vertex="1" parent="1">
          <mxGeometry x="-10" y="170" width="250" height="80" as="geometry" />
        </mxCell>
        <mxCell id="gMse6Fu8QTCak0NaZkUb-11" value="Deployment webappnodb" style="rounded=0;whiteSpace=wrap;html=1;" vertex="1" parent="1">
          <mxGeometry x="100" y="190" width="120" height="40" as="geometry" />
        </mxCell>
        <mxCell id="gMse6Fu8QTCak0NaZkUb-12" value="pod&lt;div&gt;webappnodb&lt;/div&gt;" style="text;html=1;align=center;verticalAlign=middle;whiteSpace=wrap;rounded=0;" vertex="1" parent="1">
          <mxGeometry x="20" y="195" width="60" height="30" as="geometry" />
        </mxCell>
        <mxCell id="gMse6Fu8QTCak0NaZkUb-14" value="ClusterIP controller" style="rounded=0;whiteSpace=wrap;html=1;" vertex="1" parent="1">
          <mxGeometry x="200" y="330" width="270" height="70" as="geometry" />
        </mxCell>
        <mxCell id="gMse6Fu8QTCak0NaZkUb-18" value="" style="shape=flexArrow;endArrow=classic;startArrow=classic;html=1;rounded=0;exitX=0.75;exitY=0;exitDx=0;exitDy=0;entryX=1;entryY=0.5;entryDx=0;entryDy=0;" edge="1" parent="1" source="gMse6Fu8QTCak0NaZkUb-14" target="-bDl3V9sjxUpRApwp8d1-5">
          <mxGeometry width="100" height="100" relative="1" as="geometry">
            <mxPoint x="560" y="310" as="sourcePoint" />
            <mxPoint x="435" y="90" as="targetPoint" />
            <Array as="points">
              <mxPoint x="403" y="270" />
              <mxPoint x="420" y="270" />
              <mxPoint x="420" y="70" />
            </Array>
          </mxGeometry>
        </mxCell>
        <mxCell id="-bDl3V9sjxUpRApwp8d1-23" value="port&amp;nbsp;27017" style="rounded=1;whiteSpace=wrap;html=1;" parent="1" vertex="1">
          <mxGeometry x="380" y="190" width="80" height="20" as="geometry" />
        </mxCell>
        <mxCell id="gMse6Fu8QTCak0NaZkUb-21" value="" style="shape=flexArrow;endArrow=classic;startArrow=classic;html=1;rounded=0;entryX=0.5;entryY=1;entryDx=0;entryDy=0;exitX=1;exitY=0.5;exitDx=0;exitDy=0;" edge="1" parent="1" source="gMse6Fu8QTCak0NaZkUb-14">
          <mxGeometry width="100" height="100" relative="1" as="geometry">
            <mxPoint x="500" y="380" as="sourcePoint" />
            <mxPoint x="540" y="140" as="targetPoint" />
            <Array as="points">
              <mxPoint x="500" y="365" />
              <mxPoint x="500" y="210" />
              <mxPoint x="500" y="140" />
            </Array>
          </mxGeometry>
        </mxCell>
        <mxCell id="gMse6Fu8QTCak0NaZkUb-17" value="port&amp;nbsp;27017" style="rounded=1;whiteSpace=wrap;html=1;" vertex="1" parent="1">
          <mxGeometry x="480" y="250" width="80" height="20" as="geometry" />
        </mxCell>
        <mxCell id="gMse6Fu8QTCak0NaZkUb-24" value="" style="shape=flexArrow;endArrow=classic;startArrow=classic;html=1;rounded=0;entryX=0.25;entryY=0;entryDx=0;entryDy=0;dashed=1;" edge="1" parent="1" target="-bDl3V9sjxUpRApwp8d1-19">
          <mxGeometry width="100" height="100" relative="1" as="geometry">
            <mxPoint x="370" y="70" as="sourcePoint" />
            <mxPoint x="620" y="70" as="targetPoint" />
            <Array as="points">
              <mxPoint x="603" y="70" />
            </Array>
          </mxGeometry>
        </mxCell>
      </root>
    </mxGraphModel>
  </diagram>
</mxfile>
